<?xml version="1.0" encoding="utf-8"?>
<!-- Generator: Adobe Illustrator 19.0.0, SVG Export Plug-In . SVG Version: 6.00 Build 0)  -->
<svg version="1.1" id="Layer_1" xmlns="http://www.w3.org/2000/svg" xmlns:xlink="http://www.w3.org/1999/xlink" x="0px" y="0px"
	 viewBox="0 0 96 96" style="enable-background:new 0 0 96 96;" xml:space="preserve">
<g id="XMLID_6_">
	<path id="XMLID_11_" class="st0" d="M69.6,21.2H26.4c-3,0-5.4,2.4-5.4,5.4v43.2c0,3,2.4,5.4,5.4,5.4h43.2c3,0,5.4-2.4,5.4-5.4V26.6
		C75,23.7,72.6,21.2,69.6,21.2z M69.6,69.8H26.4V26.6h43.2V69.8z M64.2,32H50.7c-3,0-5.4,2.4-5.4,5.4v6.1c-1.6,0.9-2.7,2.7-2.7,4.7
		c0,3,2.4,5.4,5.4,5.4c3,0,5.4-2.4,5.4-5.4c0-2-1.1-3.7-2.7-4.7v-6.1h8.1V59H37.2V37.4h5.4V32H31.8v32.4h32.4V32z"/>
</g>
</svg>
